<?xml version="1.0" encoding="UTF-8" standalone="no"?><svg xmlns="http://www.w3.org/2000/svg" xmlns:xlink="http://www.w3.org/1999/xlink" contentScriptType="application/ecmascript" contentStyleType="text/css" height="432px" preserveAspectRatio="none" style="width:460px;height:432px;background:#FFFFFF;" version="1.1" viewBox="0 0 460 432" width="460px" zoomAndPan="magnify"><defs><filter height="300%" id="fcnesyaydm4gf" width="300%" x="-1" y="-1"><feGaussianBlur result="blurOut" stdDeviation="2.0"/><feColorMatrix in="blurOut" result="blurOut2" type="matrix" values="0 0 0 0 0 0 0 0 0 0 0 0 0 0 0 0 0 0 .4 0"/><feOffset dx="4.0" dy="4.0" in="blurOut2" result="blurOut3"/><feBlend in="SourceGraphic" in2="blurOut3" mode="normal"/></filter></defs><g><line style="stroke:#A80036;stroke-width:1.0;stroke-dasharray:5.0,5.0;" x1="22" x2="22" y1="91.9404" y2="344.0693"/><line style="stroke:#A80036;stroke-width:1.0;stroke-dasharray:5.0,5.0;" x1="208" x2="208" y1="91.9404" y2="344.0693"/><line style="stroke:#A80036;stroke-width:1.0;stroke-dasharray:5.0,5.0;" x1="391.5" x2="391.5" y1="91.9404" y2="344.0693"/><text fill="#000000" font-family="sans-serif" font-size="14" lengthAdjust="spacing" textLength="28" x="5" y="88.8643">user</text><ellipse cx="22" cy="15" fill="#FEFECE" filter="url(#fcnesyaydm4gf)" rx="8" ry="8" style="stroke:#A80036;stroke-width:2.0;"/><path d="M22,23 L22,50 M9,31 L35,31 M22,50 L9,65 M22,50 L35,65 " fill="none" filter="url(#fcnesyaydm4gf)" style="stroke:#A80036;stroke-width:2.0;"/><text fill="#000000" font-family="sans-serif" font-size="14" lengthAdjust="spacing" textLength="28" x="5" y="359.9336">user</text><ellipse cx="22" cy="373.0098" fill="#FEFECE" filter="url(#fcnesyaydm4gf)" rx="8" ry="8" style="stroke:#A80036;stroke-width:2.0;"/><path d="M22,381.0098 L22,408.0098 M9,389.0098 L35,389.0098 M22,408.0098 L9,423.0098 M22,408.0098 L35,423.0098 " fill="none" filter="url(#fcnesyaydm4gf)" style="stroke:#A80036;stroke-width:2.0;"/><rect fill="#FEFECE" filter="url(#fcnesyaydm4gf)" height="33.9404" style="stroke:#A80036;stroke-width:1.5;" width="56" x="178" y="53"/><text fill="#000000" font-family="sans-serif" font-size="14" lengthAdjust="spacing" textLength="42" x="185" y="76.8643">linebot</text><rect fill="#FEFECE" filter="url(#fcnesyaydm4gf)" height="33.9404" style="stroke:#A80036;stroke-width:1.5;" width="56" x="178" y="343.0693"/><text fill="#000000" font-family="sans-serif" font-size="14" lengthAdjust="spacing" textLength="42" x="185" y="366.9336">linebot</text><rect fill="#FEFECE" filter="url(#fcnesyaydm4gf)" height="33.9404" style="stroke:#A80036;stroke-width:1.5;" width="113" x="333.5" y="53"/><text fill="#000000" font-family="sans-serif" font-size="14" lengthAdjust="spacing" textLength="99" x="340.5" y="76.8643">webcam_server</text><rect fill="#FEFECE" filter="url(#fcnesyaydm4gf)" height="33.9404" style="stroke:#A80036;stroke-width:1.5;" width="113" x="333.5" y="343.0693"/><text fill="#000000" font-family="sans-serif" font-size="14" lengthAdjust="spacing" textLength="99" x="340.5" y="366.9336">webcam_server</text><polygon fill="#A80036" points="196,122.4565,206,126.4565,196,130.4565,200,126.4565" style="stroke:#A80036;stroke-width:1.0;"/><line style="stroke:#A80036;stroke-width:1.0;" x1="22" x2="202" y1="126.4565" y2="126.4565"/><text fill="#000000" font-family="sans-serif" font-size="13" font-weight="bold" lengthAdjust="spacing" textLength="7" x="29" y="121.6001">1</text><text fill="#000000" font-family="sans-serif" font-size="13" lengthAdjust="spacing" textLength="27" x="40" y="121.6001">login</text><polygon fill="#A80036" points="33,154.9727,23,158.9727,33,162.9727,29,158.9727" style="stroke:#A80036;stroke-width:1.0;"/><line style="stroke:#A80036;stroke-width:1.0;" x1="27" x2="207" y1="158.9727" y2="158.9727"/><text fill="#000000" font-family="sans-serif" font-size="13" font-weight="bold" lengthAdjust="spacing" textLength="7" x="39" y="154.1162">2</text><text fill="#000000" font-family="sans-serif" font-size="13" lengthAdjust="spacing" textLength="151" x="50" y="154.1162">personal menu(RichMenu)</text><polygon fill="#A80036" points="196,187.4888,206,191.4888,196,195.4888,200,191.4888" style="stroke:#A80036;stroke-width:1.0;"/><line style="stroke:#A80036;stroke-width:1.0;" x1="22" x2="202" y1="191.4888" y2="191.4888"/><text fill="#000000" font-family="sans-serif" font-size="13" font-weight="bold" lengthAdjust="spacing" textLength="7" x="29" y="186.6323">3</text><text fill="#000000" font-family="sans-serif" font-size="13" lengthAdjust="spacing" textLength="79" x="40" y="186.6323">click webcam</text><polygon fill="#A80036" points="380,220.0049,390,224.0049,380,228.0049,384,224.0049" style="stroke:#A80036;stroke-width:1.0;"/><line style="stroke:#A80036;stroke-width:1.0;" x1="208" x2="386" y1="224.0049" y2="224.0049"/><text fill="#000000" font-family="sans-serif" font-size="13" font-weight="bold" lengthAdjust="spacing" textLength="7" x="215" y="219.1484">4</text><text fill="#000000" font-family="sans-serif" font-size="13" lengthAdjust="spacing" textLength="130" x="226" y="219.1484">Authentication request</text><polygon fill="#A80036" points="219,289.5532,209,293.5532,219,297.5532,215,293.5532" style="stroke:#A80036;stroke-width:1.0;"/><line style="stroke:#A80036;stroke-width:1.0;" x1="213" x2="391" y1="293.5532" y2="293.5532"/><text fill="#000000" font-family="sans-serif" font-size="13" font-weight="bold" lengthAdjust="spacing" textLength="7" x="225" y="270.1807">5</text><text fill="#000000" font-family="sans-serif" font-size="13" lengthAdjust="spacing" textLength="145" x="236" y="251.6646">Authentication Response</text><text fill="#000000" font-family="sans-serif" font-size="13" lengthAdjust="spacing" textLength="127" x="240" y="270.1807">allow: video streaming</text><text fill="#000000" font-family="sans-serif" font-size="13" lengthAdjust="spacing" textLength="142" x="240" y="288.6968">deny: rejection message</text><polygon fill="#A80036" points="33,322.0693,23,326.0693,33,330.0693,29,326.0693" style="stroke:#A80036;stroke-width:1.0;"/><line style="stroke:#A80036;stroke-width:1.0;" x1="27" x2="207" y1="326.0693" y2="326.0693"/><text fill="#000000" font-family="sans-serif" font-size="13" font-weight="bold" lengthAdjust="spacing" textLength="7" x="39" y="321.2129">6</text><text fill="#000000" font-family="sans-serif" font-size="13" lengthAdjust="spacing" textLength="12" x="50" y="321.2129">liff</text><!--MD5=[214417351ca098bf50ab4e62be2a1295]
@startuml
autonumber
actor user
user->linebot:login
linebot->user:personal menu(RichMenu)
user->linebot:click webcam
linebot->webcam_server:Authentication request
webcam_server->linebot:Authentication Response \n allow: video streaming \n deny: rejection message
linebot->user:liff

@enduml

PlantUML version 1.2021.7(Sun May 23 20:40:07 CST 2021)
(GPL source distribution)
Java Runtime: Java(TM) SE Runtime Environment
JVM: Java HotSpot(TM) 64-Bit Server VM
Default Encoding: MS950
Language: zh
Country: TW
--></g></svg>